<?xml version="1.0" encoding="utf-8"?>
<!-- Generator: Adobe Illustrator 17.0.0, SVG Export Plug-In . SVG Version: 6.00 Build 0)  -->
<!DOCTYPE svg PUBLIC "-//W3C//DTD SVG 1.1//EN" "http://www.w3.org/Graphics/SVG/1.1/DTD/svg11.dtd">
<svg version="1.1" id="Layer_1" xmlns="http://www.w3.org/2000/svg" xmlns:xlink="http://www.w3.org/1999/xlink" x="0px" y="0px"
	 width="151px" height="20px" viewBox="0 0 151 20" enable-background="new 0 0 151 20" xml:space="preserve">
<g>
	<path fill="#000" d="M11.62,18.804c0,0.409-0.327,0.739-0.729,0.739c-0.402,0-0.729-0.331-0.729-0.739
		c0-0.409,0.327-0.74,0.729-0.74C11.293,18.064,11.62,18.395,11.62,18.804"/>
	<path fill="#000" d="M12.082,16.498c-0.134,0.385-0.549,0.586-0.93,0.452c-0.377-0.135-0.579-0.557-0.443-0.941
		c0.132-0.386,0.549-0.589,0.928-0.454C12.017,15.689,12.216,16.112,12.082,16.498"/>
	<path fill="#000" d="M13.226,14.546c-0.256,0.317-0.715,0.365-1.026,0.108c-0.313-0.258-0.359-0.723-0.105-1.04
		c0.252-0.317,0.711-0.366,1.022-0.108C13.43,13.763,13.479,14.227,13.226,14.546"/>
	<path fill="#000" d="M14.98,13.174c-0.346,0.213-0.793,0.104-1.003-0.247c-0.209-0.348-0.1-0.803,0.242-1.016
		c0.345-0.213,0.79-0.102,1.001,0.248C15.43,12.506,15.322,12.962,14.98,13.174"/>
	<path fill="#000" d="M17.154,12.351c-0.395,0.085-0.782-0.169-0.864-0.569c-0.085-0.399,0.166-0.792,0.56-0.875
		c0.395-0.086,0.782,0.169,0.864,0.567C17.797,11.875,17.546,12.267,17.154,12.351"/>
	<path fill="#000" d="M19.289,12.415c-0.401-0.055-0.678-0.427-0.628-0.832c0.055-0.404,0.42-0.69,0.821-0.634
		c0.399,0.054,0.678,0.426,0.624,0.832C20.053,12.185,19.685,12.469,19.289,12.415"/>
	<path fill="#000" d="M21.352,13.307c-0.355-0.19-0.491-0.639-0.303-0.998c0.188-0.362,0.627-0.499,0.985-0.31
		c0.354,0.19,0.491,0.638,0.304,1C22.15,13.359,21.71,13.498,21.352,13.307"/>
	<path fill="#000" d="M23.104,14.751c-0.271-0.301-0.25-0.77,0.049-1.044c0.295-0.274,0.757-0.254,1.029,0.046
		c0.27,0.303,0.25,0.77-0.045,1.047C23.835,15.076,23.376,15.054,23.104,14.751"/>
	<path fill="#000" d="M24.271,16.687c-0.154-0.375,0.018-0.809,0.388-0.966c0.373-0.16,0.799,0.019,0.955,0.395
		c0.156,0.375-0.017,0.809-0.389,0.967C24.856,17.243,24.427,17.066,24.271,16.687"/>
	<path fill="#000" d="M24.735,18.839c-0.02-0.406,0.291-0.755,0.691-0.774c0.403-0.02,0.743,0.296,0.763,0.704
		c0.02,0.41-0.291,0.754-0.694,0.774C25.094,19.563,24.752,19.246,24.735,18.839"/>
	<path fill="#000" d="M9.597,18.72c0,0.571-0.456,1.035-1.021,1.035c-0.561,0-1.021-0.464-1.021-1.035
		c0-0.573,0.46-1.037,1.021-1.037C9.141,17.683,9.597,18.147,9.597,18.72"/>
	<path fill="#000" d="M10.115,15.754c-0.186,0.54-0.771,0.825-1.3,0.634c-0.532-0.19-0.812-0.781-0.626-1.318
		c0.19-0.542,0.77-0.825,1.3-0.635C10.02,14.623,10.302,15.215,10.115,15.754"/>
	<path fill="#000" d="M11.588,13.079c-0.356,0.442-0.997,0.512-1.435,0.151c-0.438-0.361-0.505-1.012-0.151-1.456
		c0.357-0.444,0.997-0.511,1.435-0.151C11.876,11.981,11.942,12.636,11.588,13.079"/>
	<path fill="#000" d="M13.789,11.216c-0.481,0.298-1.108,0.144-1.401-0.343c-0.293-0.489-0.141-1.126,0.34-1.424
		c0.483-0.297,1.108-0.143,1.403,0.344C14.423,10.283,14.268,10.919,13.789,11.216"/>
	<path fill="#000" d="M16.595,10.22c-0.551,0.116-1.095-0.241-1.21-0.801c-0.115-0.558,0.236-1.108,0.788-1.226
		c0.551-0.118,1.093,0.24,1.208,0.797C17.499,9.551,17.146,10.1,16.595,10.22"/>
	<path fill="#000" d="M19.632,10.231c-0.557-0.075-0.95-0.595-0.875-1.162c0.076-0.568,0.59-0.965,1.149-0.89
		c0.557,0.077,0.946,0.597,0.872,1.164C20.706,9.91,20.191,10.308,19.632,10.231"/>
	<path fill="#000" d="M22.411,11.247c-0.499-0.267-0.688-0.892-0.427-1.398c0.264-0.506,0.882-0.699,1.378-0.433
		c0.5,0.266,0.688,0.894,0.426,1.398C23.524,11.322,22.909,11.516,22.411,11.247"/>
	<path fill="#000" d="M24.661,13.123c-0.377-0.422-0.349-1.078,0.068-1.462c0.416-0.383,1.061-0.354,1.44,0.066
		c0.377,0.422,0.35,1.078-0.066,1.462C25.688,13.579,25.041,13.546,24.661,13.123"/>
	<path fill="#000" d="M26.162,15.811c-0.217-0.525,0.027-1.133,0.545-1.354c0.516-0.221,1.118,0.024,1.335,0.552
		c0.217,0.528-0.023,1.134-0.543,1.356C26.979,16.586,26.381,16.339,26.162,15.811"/>
	<path fill="#000" d="M26.756,18.753c-0.027-0.571,0.407-1.053,0.97-1.083c0.563-0.027,1.042,0.414,1.069,0.986
		c0.026,0.57-0.408,1.054-0.971,1.083C27.258,19.767,26.781,19.325,26.756,18.753"/>
	<path fill="#000" d="M6.782,18.532c0,0.734-0.589,1.331-1.311,1.331c-0.727,0-1.312-0.597-1.312-1.331s0.585-1.33,1.312-1.33
		C6.193,17.203,6.782,17.798,6.782,18.532"/>
	<path fill="#000" d="M7.477,14.623c-0.238,0.693-0.987,1.059-1.671,0.813c-0.683-0.243-1.042-1.001-0.802-1.695
		c0.238-0.695,0.987-1.059,1.671-0.815C7.358,13.17,7.718,13.931,7.477,14.623"/>
	<path fill="#000" d="M9.511,11.107c-0.458,0.572-1.285,0.659-1.844,0.196c-0.563-0.463-0.651-1.301-0.193-1.872
		c0.455-0.57,1.282-0.658,1.843-0.194C9.879,9.7,9.966,10.538,9.511,11.107"/>
	<path fill="#000" d="M12.619,8.53c-0.62,0.383-1.427,0.185-1.803-0.443c-0.377-0.628-0.181-1.445,0.436-1.829
		c0.618-0.382,1.427-0.183,1.804,0.443C13.434,7.329,13.236,8.148,12.619,8.53"/>
	<path fill="#000" d="M16.327,7.17c-0.71,0.151-1.404-0.308-1.557-1.026c-0.15-0.719,0.303-1.425,1.013-1.578
		c0.706-0.153,1.402,0.306,1.552,1.025C17.486,6.31,17.035,7.017,16.327,7.17"/>
	<path fill="#000" d="M20.291,7.267c-0.716-0.097-1.22-0.766-1.122-1.495c0.095-0.729,0.756-1.24,1.472-1.143
		c0.719,0.098,1.222,0.768,1.126,1.497C21.671,6.854,21.011,7.367,20.291,7.267"/>
	<path fill="#000" d="M23.949,8.571c-0.639-0.343-0.886-1.147-0.545-1.798c0.336-0.65,1.13-0.899,1.771-0.556
		c0.64,0.342,0.886,1.149,0.545,1.798C25.384,8.666,24.588,8.914,23.949,8.571"/>
	<path fill="#000" d="M26.957,11.196c-0.489-0.542-0.451-1.385,0.086-1.881c0.534-0.494,1.363-0.458,1.851,0.084
		c0.489,0.545,0.452,1.387-0.084,1.883C28.274,11.777,27.448,11.74,26.957,11.196"/>
	<path fill="#000" d="M28.818,14.725c-0.282-0.678,0.031-1.458,0.698-1.745c0.669-0.284,1.437,0.033,1.72,0.71
		c0.28,0.68-0.035,1.459-0.702,1.744C29.868,15.719,29.098,15.402,28.818,14.725"/>
	<path fill="#000" d="M29.573,18.579c-0.033-0.734,0.524-1.358,1.249-1.395c0.726-0.034,1.337,0.534,1.371,1.267
		c0.035,0.734-0.524,1.358-1.247,1.394C30.222,19.878,29.608,19.311,29.573,18.579"/>
	<path fill="#000" d="M3.204,18.374c0,0.897-0.715,1.625-1.601,1.625C0.717,19.999,0,19.271,0,18.374
		c0-0.899,0.717-1.628,1.603-1.628C2.489,16.746,3.204,17.475,3.204,18.374"/>
	<path fill="#000" d="M4.055,13.691c-0.293,0.847-1.208,1.293-2.045,0.997c-0.834-0.298-1.272-1.228-0.979-2.074
		c0.293-0.848,1.208-1.293,2.04-0.996C3.908,11.915,4.348,12.844,4.055,13.691"/>
	<path fill="#000" d="M6.179,9.546c-0.559,0.699-1.567,0.806-2.256,0.241C3.237,9.22,3.13,8.195,3.687,7.497
		C4.246,6.8,5.257,6.694,5.941,7.259C6.631,7.825,6.734,8.85,6.179,9.546"/>
	<path fill="#000" d="M9.288,6.198C8.533,6.666,7.546,6.422,7.084,5.656C6.625,4.888,6.864,3.888,7.618,3.419
		c0.756-0.465,1.744-0.223,2.205,0.542C10.282,4.73,10.042,5.73,9.288,6.198"/>
	<path fill="#000" d="M13.541,4.077c-0.866,0.185-1.716-0.375-1.899-1.253c-0.182-0.879,0.369-1.743,1.235-1.928
		c0.864-0.188,1.716,0.374,1.899,1.252C14.96,3.027,14.407,3.892,13.541,4.077"/>
	<path fill="#000" d="M23.149,4.099c-0.877-0.119-1.493-0.94-1.376-1.83c0.118-0.89,0.925-1.515,1.803-1.395
		c0.875,0.121,1.491,0.937,1.373,1.828C24.832,3.592,24.025,4.218,23.149,4.099"/>
	<path fill="#000" d="M27.293,6.247c-0.784-0.418-1.081-1.403-0.668-2.198c0.412-0.794,1.382-1.098,2.166-0.679
		c0.782,0.421,1.081,1.403,0.669,2.198C29.047,6.362,28.077,6.666,27.293,6.247"/>
	<path fill="#000" d="M30.589,9.619c-0.598-0.664-0.552-1.693,0.102-2.298c0.655-0.607,1.668-0.559,2.266,0.105
		c0.596,0.663,0.551,1.692-0.102,2.298C32.2,10.329,31.185,10.283,30.589,9.619"/>
	<path fill="#000" d="M32.466,13.783c-0.342-0.828,0.041-1.781,0.854-2.129c0.817-0.35,1.756,0.04,2.1,0.866
		c0.343,0.83-0.039,1.782-0.854,2.131C33.748,14.999,32.808,14.611,32.466,13.783"/>
	<path fill="#000" d="M33.148,18.451c-0.041-0.898,0.641-1.659,1.524-1.703c0.884-0.042,1.636,0.65,1.677,1.548
		c0.043,0.898-0.641,1.66-1.525,1.703C33.942,20.041,33.191,19.348,33.148,18.451"/>
	<path fill="#000" d="M18.147,3.239c-0.88-0.118-1.494-0.939-1.377-1.828c0.118-0.891,0.922-1.515,1.801-1.396
		c0.877,0.12,1.493,0.94,1.374,1.83C19.83,2.734,19.022,3.359,18.147,3.239"/>
</g>
<g>
	<path fill="#000" d="M57.317,7.099L52.423,17.22h-0.9L46.628,7.099h2.838l2.496,5.61l2.498-5.61H57.317z"/>
	<path fill="#000" d="M66.99,8.367c1.04,0.991,1.558,2.212,1.558,3.663c0,1.45-0.518,2.675-1.558,3.673
		c-1.038,0.998-2.296,1.498-3.776,1.498c-1.478,0-2.727-0.495-3.746-1.489c-1.021-0.99-1.529-2.218-1.529-3.682
		c0-1.451,0.512-2.672,1.539-3.663c1.026-0.991,2.277-1.488,3.755-1.488C64.697,6.878,65.952,7.375,66.99,8.367z M61.395,10.103
		c-0.479,0.512-0.719,1.161-0.719,1.946c0,0.785,0.241,1.427,0.719,1.926c0.481,0.5,1.093,0.75,1.838,0.75
		c0.733,0,1.343-0.253,1.83-0.758c0.484-0.507,0.727-1.146,0.727-1.917c0-0.772-0.243-1.418-0.727-1.937
		c-0.487-0.518-1.097-0.779-1.83-0.779C62.488,9.334,61.876,9.591,61.395,10.103z"/>
	<path fill="#000" d="M79.659,12.627c0,1.372-0.43,2.479-1.291,3.326c-0.858,0.845-1.939,1.267-3.245,1.267
		c-1.333,0-2.428-0.419-3.288-1.259c-0.858-0.838-1.288-1.949-1.288-3.334V7.099h2.697v5.75c0,0.57,0.176,1.029,0.53,1.376
		c0.352,0.346,0.804,0.521,1.349,0.521c0.518,0,0.954-0.175,1.308-0.521c0.354-0.347,0.529-0.806,0.529-1.376v-5.75h2.698V12.627z"
		/>
	<path fill="#000" d="M84.935,16.98h-2.697V2.008h2.697V16.98z"/>
	<path fill="#000" d="M90.18,2.308c0.338,0.318,0.51,0.718,0.51,1.198c0,0.465-0.172,0.858-0.51,1.178
		c-0.34,0.318-0.749,0.479-1.228,0.479c-0.481,0-0.885-0.161-1.219-0.479c-0.333-0.319-0.499-0.713-0.499-1.178
		c0-0.48,0.166-0.879,0.499-1.198c0.334-0.32,0.738-0.479,1.219-0.479C89.431,1.829,89.84,1.988,90.18,2.308z M90.309,16.98h-2.695
		V7.099h2.695V16.98z"/>
	<path fill="#8bffcc" d="M108.534,7.099l-4.596,10.122h-0.879l-2.858-5.75l-2.836,5.75h-0.879L91.891,7.099h2.836l2.358,5.629
		l2.678-5.849h0.899l2.737,5.729l2.296-5.509H108.534z"/>
	<path fill="#8bffcc" d="M128.129,14.725v2.255c-0.639,0.161-1.257,0.24-1.857,0.24c-1.253,0-2.225-0.31-2.919-0.929
		c-0.692-0.618-1.038-1.546-1.038-2.783V9.374h-1.558V7.099h1.558V4.603h2.698v2.495h2.797v2.275h-2.797v3.893
		c0,0.56,0.145,0.955,0.439,1.188c0.292,0.233,0.759,0.35,1.398,0.35C127.009,14.804,127.437,14.778,128.129,14.725z"/>
	<path fill="#8bffcc" d="M137.182,7.528c0.731,0.431,1.312,1.028,1.737,1.787l-1.878,1.456c-0.639-0.958-1.433-1.436-2.377-1.436
		c-0.761,0-1.382,0.257-1.869,0.769c-0.487,0.512-0.729,1.154-0.729,1.926c0,0.785,0.243,1.435,0.729,1.946
		c0.487,0.513,1.108,0.771,1.869,0.771c0.919,0,1.712-0.475,2.377-1.418l1.878,1.437c-0.426,0.759-1.009,1.357-1.747,1.795
		c-0.739,0.441-1.59,0.661-2.549,0.661c-1.478,0-2.729-0.5-3.755-1.498c-1.026-0.998-1.538-2.23-1.538-3.693
		c0-1.451,0.512-2.672,1.538-3.663c1.027-0.991,2.277-1.488,3.755-1.488C135.597,6.878,136.449,7.096,137.182,7.528z"/>
	<path fill="#8bffcc" d="M149.01,7.967c0.665,0.725,0.999,1.687,0.999,2.884v6.129h-2.676v-5.749c0-0.573-0.17-1.035-0.51-1.387
		c-0.34-0.353-0.782-0.529-1.33-0.529c-0.545,0-0.995,0.177-1.349,0.529c-0.352,0.352-0.528,0.814-0.528,1.387v5.749h-2.698V2.008
		h2.698v5.929c0.705-0.706,1.611-1.059,2.717-1.059C147.453,6.878,148.346,7.243,149.01,7.967z"/>
	<path fill="#8bffcc" d="M116.431,7.052v1.152h-0.062c-0.733-0.879-1.781-1.319-2.996-1.319c-2.745,0-4.819,2.198-4.819,5.298
		c0,3.16,2.053,5.254,4.881,5.254c1.319,0,2.369-0.502,3.06-1.402h0.062v1.235h2.6V7.052H116.431z M115.52,14.099
		c-0.487,0.506-1.095,0.758-1.83,0.758c-0.745,0-1.356-0.25-1.837-0.749c-0.479-0.499-0.72-1.141-0.72-1.925
		c0-0.787,0.241-1.435,0.72-1.946c0.481-0.513,1.092-0.768,1.837-0.768c0.734,0,1.343,0.258,1.83,0.777
		c0.487,0.519,0.727,1.165,0.727,1.937C116.247,12.954,116.007,13.592,115.52,14.099z"/>
</g>
</svg>
